<svg viewBox="0 0 513 170" xmlns="http://www.w3.org/2000/svg">
<defs>
  <linearGradient id="rocketBody" x1="0" y1="-15" x2="0" y2="8" gradientUnits="userSpaceOnUse">
    <stop offset="0%" stop-color="#7ee7ff"/>
    <stop offset="55%" stop-color="#38bdf8"/>
    <stop offset="100%" stop-color="#1f6feb"/>
  </linearGradient>
  <linearGradient id="flame" x1="0" y1="8" x2="0" y2="16" gradientUnits="userSpaceOnUse">
    <stop offset="0%" stop-color="#fef08a"/>
    <stop offset="45%" stop-color="#f59e0b"/>
    <stop offset="100%" stop-color="#ef4444" stop-opacity="0"/>
  </linearGradient>
  <radialGradient id="blastGlow">
    <stop offset="0%" stop-color="#56d364" stop-opacity="0.9"/>
    <stop offset="100%" stop-color="#56d364" stop-opacity="0"/>
  </radialGradient>
  <filter id="softGlow" x="-150%" y="-150%" width="400%" height="400%">
    <feGaussianBlur stdDeviation="1.6" result="blur"/>
    <feMerge>
      <feMergeNode in="blur"/>
      <feMergeNode in="SourceGraphic"/>
    </feMerge>
  </filter>
</defs>
<rect x="0" y="0" width="513" height="170" fill="#0d1117"/>
<circle cx="8" cy="20" r="1.1" fill="#8b949e"><animate attributeName="opacity" values="0.2;1;0.2" dur="1.2s" repeatCount="indefinite"/></circle>
<circle cx="8" cy="60" r="1.1" fill="#8b949e"><animate attributeName="opacity" values="0.2;1;0.2" dur="1.6s" repeatCount="indefinite"/></circle>
<circle cx="8" cy="100" r="1.1" fill="#8b949e"><animate attributeName="opacity" values="0.2;1;0.2" dur="2s" repeatCount="indefinite"/></circle>
<circle cx="505" cy="25" r="1.1" fill="#8b949e"><animate attributeName="opacity" values="0.2;1;0.2" dur="1.2s" repeatCount="indefinite"/></circle>
<circle cx="505" cy="70" r="1.1" fill="#8b949e"><animate attributeName="opacity" values="0.2;1;0.2" dur="1.6s" repeatCount="indefinite"/></circle>
<circle cx="505" cy="110" r="1.1" fill="#8b949e"><animate attributeName="opacity" values="0.2;1;0.2" dur="2s" repeatCount="indefinite"/></circle>
<circle cx="30" cy="164" r="1.1" fill="#8b949e"><animate attributeName="opacity" values="0.2;1;0.2" dur="1.2s" repeatCount="indefinite"/></circle>
<circle cx="483" cy="164" r="1.1" fill="#8b949e"><animate attributeName="opacity" values="0.2;1;0.2" dur="1.6s" repeatCount="indefinite"/></circle>
<g id="grid">
<rect x="20.00" y="15.00" width="11" height="11" rx="2" ry="2" fill="#161b22"/>
<rect x="20.00" y="29.00" width="11" height="11" rx="2" ry="2" fill="#161b22"/>
<rect x="20.00" y="43.00" width="11" height="11" rx="2" ry="2" fill="#161b22"/>
<rect x="20.00" y="57.00" width="11" height="11" rx="2" ry="2" fill="#161b22"/>
<rect x="20.00" y="71.00" width="11" height="11" rx="2" ry="2" fill="#161b22"/>
<rect x="20.00" y="85.00" width="11" height="11" rx="2" ry="2" fill="#161b22"/>
<rect x="20.00" y="99.00" width="11" height="11" rx="2" ry="2" fill="#161b22"/>
<rect x="34.00" y="15.00" width="11" height="11" rx="2" ry="2" fill="#161b22"/>
<rect x="34.00" y="29.00" width="11" height="11" rx="2" ry="2" fill="#161b22"/>
<rect x="34.00" y="43.00" width="11" height="11" rx="2" ry="2" fill="#161b22"/>
<rect x="34.00" y="57.00" width="11" height="11" rx="2" ry="2" fill="#161b22"/>
<rect x="34.00" y="71.00" width="11" height="11" rx="2" ry="2" fill="#161b22"/>
<rect x="34.00" y="85.00" width="11" height="11" rx="2" ry="2" fill="#161b22"/>
<rect x="34.00" y="99.00" width="11" height="11" rx="2" ry="2" fill="#161b22"/>
<rect x="48.00" y="15.00" width="11" height="11" rx="2" ry="2" fill="#161b22"/>
<rect x="48.00" y="29.00" width="11" height="11" rx="2" ry="2" fill="#161b22"/>
<rect x="48.00" y="43.00" width="11" height="11" rx="2" ry="2" fill="#161b22"/>
<rect x="48.00" y="57.00" width="11" height="11" rx="2" ry="2" fill="#161b22"/>
<rect x="48.00" y="71.00" width="11" height="11" rx="2" ry="2" fill="#161b22"/>
<rect x="48.00" y="85.00" width="11" height="11" rx="2" ry="2" fill="#161b22"/>
<rect x="48.00" y="99.00" width="11" height="11" rx="2" ry="2" fill="#161b22"/>
<rect x="62.00" y="15.00" width="11" height="11" rx="2" ry="2" fill="#161b22"/>
<rect x="62.00" y="29.00" width="11" height="11" rx="2" ry="2" fill="#161b22"/>
<rect x="62.00" y="43.00" width="11" height="11" rx="2" ry="2" fill="#161b22"/>
<rect x="62.00" y="57.00" width="11" height="11" rx="2" ry="2" fill="#161b22"/>
<rect x="62.00" y="71.00" width="11" height="11" rx="2" ry="2" fill="#161b22"/>
<rect x="62.00" y="85.00" width="11" height="11" rx="2" ry="2" fill="#161b22"/>
<rect x="62.00" y="99.00" width="11" height="11" rx="2" ry="2" fill="#161b22"/>
<rect x="76.00" y="15.00" width="11" height="11" rx="2" ry="2" fill="#161b22"/>
<rect x="76.00" y="29.00" width="11" height="11" rx="2" ry="2" fill="#161b22"/>
<rect x="76.00" y="43.00" width="11" height="11" rx="2" ry="2" fill="#161b22"/>
<rect x="76.00" y="57.00" width="11" height="11" rx="2" ry="2" fill="#161b22"/>
<rect x="76.00" y="71.00" width="11" height="11" rx="2" ry="2" fill="#161b22"/>
<rect x="76.00" y="85.00" width="11" height="11" rx="2" ry="2" fill="#161b22"/>
<rect x="76.00" y="99.00" width="11" height="11" rx="2" ry="2" fill="#161b22"/>
<rect x="90.00" y="15.00" width="11" height="11" rx="2" ry="2" fill="#161b22"/>
<rect x="90.00" y="29.00" width="11" height="11" rx="2" ry="2" fill="#161b22"/>
<rect x="90.00" y="43.00" width="11" height="11" rx="2" ry="2" fill="#161b22"/>
<rect x="90.00" y="57.00" width="11" height="11" rx="2" ry="2" fill="#161b22"/>
<rect x="90.00" y="71.00" width="11" height="11" rx="2" ry="2" fill="#161b22"/>
<rect x="90.00" y="85.00" width="11" height="11" rx="2" ry="2" fill="#161b22"/>
<rect x="90.00" y="99.00" width="11" height="11" rx="2" ry="2" fill="#161b22"/>
<rect x="104.00" y="15.00" width="11" height="11" rx="2" ry="2" fill="#161b22"/>
<rect x="104.00" y="29.00" width="11" height="11" rx="2" ry="2" fill="#161b22"/>
<rect x="104.00" y="43.00" width="11" height="11" rx="2" ry="2" fill="#161b22"/>
<rect x="104.00" y="57.00" width="11" height="11" rx="2" ry="2" fill="#161b22"/>
<rect x="104.00" y="71.00" width="11" height="11" rx="2" ry="2" fill="#161b22"/>
<rect x="104.00" y="85.00" width="11" height="11" rx="2" ry="2" fill="#161b22"/>
<rect x="104.00" y="99.00" width="11" height="11" rx="2" ry="2" fill="#161b22"/>
<rect x="118.00" y="15.00" width="11" height="11" rx="2" ry="2" fill="#161b22"/>
<rect x="118.00" y="29.00" width="11" height="11" rx="2" ry="2" fill="#161b22"/>
<rect x="118.00" y="43.00" width="11" height="11" rx="2" ry="2" fill="#161b22"/>
<rect x="118.00" y="57.00" width="11" height="11" rx="2" ry="2" fill="#161b22"/>
<rect x="118.00" y="71.00" width="11" height="11" rx="2" ry="2" fill="#161b22"/>
<rect x="118.00" y="85.00" width="11" height="11" rx="2" ry="2" fill="#161b22"/>
<rect x="118.00" y="99.00" width="11" height="11" rx="2" ry="2" fill="#161b22"/>
<rect x="132.00" y="15.00" width="11" height="11" rx="2" ry="2" fill="#161b22"/>
<rect x="132.00" y="29.00" width="11" height="11" rx="2" ry="2" fill="#161b22"/>
<rect x="132.00" y="43.00" width="11" height="11" rx="2" ry="2" fill="#161b22"/>
<rect x="132.00" y="57.00" width="11" height="11" rx="2" ry="2" fill="#161b22"/>
<rect x="132.00" y="71.00" width="11" height="11" rx="2" ry="2" fill="#161b22"/>
<rect x="132.00" y="85.00" width="11" height="11" rx="2" ry="2" fill="#161b22"/>
<rect x="132.00" y="99.00" width="11" height="11" rx="2" ry="2" fill="#161b22"/>
<rect x="146.00" y="15.00" width="11" height="11" rx="2" ry="2" fill="#161b22"/>
<rect x="146.00" y="29.00" width="11" height="11" rx="2" ry="2" fill="#161b22"/>
<rect x="146.00" y="43.00" width="11" height="11" rx="2" ry="2" fill="#161b22"/>
<rect x="146.00" y="57.00" width="11" height="11" rx="2" ry="2" fill="#161b22"/>
<rect x="146.00" y="71.00" width="11" height="11" rx="2" ry="2" fill="#161b22"/>
<rect x="146.00" y="85.00" width="11" height="11" rx="2" ry="2" fill="#161b22"/>
<rect x="146.00" y="99.00" width="11" height="11" rx="2" ry="2" fill="#161b22"/>
<rect x="160.00" y="15.00" width="11" height="11" rx="2" ry="2" fill="#161b22"/>
<rect x="160.00" y="29.00" width="11" height="11" rx="2" ry="2" fill="#161b22"/>
<rect x="160.00" y="43.00" width="11" height="11" rx="2" ry="2" fill="#161b22"/>
<rect x="160.00" y="57.00" width="11" height="11" rx="2" ry="2" fill="#161b22"/>
<rect x="160.00" y="71.00" width="11" height="11" rx="2" ry="2" fill="#161b22"/>
<rect x="160.00" y="85.00" width="11" height="11" rx="2" ry="2" fill="#161b22"/>
<rect x="160.00" y="99.00" width="11" height="11" rx="2" ry="2" fill="#161b22"/>
<rect x="174.00" y="15.00" width="11" height="11" rx="2" ry="2" fill="#161b22"/>
<rect x="174.00" y="29.00" width="11" height="11" rx="2" ry="2" fill="#161b22"/>
<rect x="174.00" y="43.00" width="11" height="11" rx="2" ry="2" fill="#161b22"/>
<rect x="174.00" y="57.00" width="11" height="11" rx="2" ry="2" fill="#161b22"/>
<rect x="174.00" y="71.00" width="11" height="11" rx="2" ry="2" fill="#161b22"/>
<rect x="174.00" y="85.00" width="11" height="11" rx="2" ry="2" fill="#161b22"/>
<rect x="174.00" y="99.00" width="11" height="11" rx="2" ry="2" fill="#161b22"/>
<rect x="188.00" y="15.00" width="11" height="11" rx="2" ry="2" fill="#161b22"/>
<rect x="188.00" y="29.00" width="11" height="11" rx="2" ry="2" fill="#161b22"/>
<rect x="188.00" y="43.00" width="11" height="11" rx="2" ry="2" fill="#161b22"/>
<rect x="188.00" y="57.00" width="11" height="11" rx="2" ry="2" fill="#161b22"/>
<rect x="188.00" y="71.00" width="11" height="11" rx="2" ry="2" fill="#161b22"/>
<rect x="188.00" y="85.00" width="11" height="11" rx="2" ry="2" fill="#161b22"/>
<rect x="188.00" y="99.00" width="11" height="11" rx="2" ry="2" fill="#161b22"/>
<rect x="202.00" y="15.00" width="11" height="11" rx="2" ry="2" fill="#161b22"/>
<rect x="202.00" y="29.00" width="11" height="11" rx="2" ry="2" fill="#161b22"/>
<rect x="202.00" y="43.00" width="11" height="11" rx="2" ry="2" fill="#161b22"/>
<rect x="202.00" y="57.00" width="11" height="11" rx="2" ry="2" fill="#161b22"/>
<rect x="202.00" y="71.00" width="11" height="11" rx="2" ry="2" fill="#161b22"/>
<rect x="202.00" y="85.00" width="11" height="11" rx="2" ry="2" fill="#161b22"/>
<rect x="202.00" y="99.00" width="11" height="11" rx="2" ry="2" fill="#161b22"/>
<rect x="216.00" y="15.00" width="11" height="11" rx="2" ry="2" fill="#0e4429"><animate attributeName="fill" dur="20s" repeatCount="indefinite" calcMode="spline" keyTimes="0;0.2152;0.2252;0.2652;0.7848;0.7948;0.8348;1" keySplines="0.42 0 0.58 1;0.42 0 0.58 1;0.42 0 0.58 1;0.42 0 0.58 1;0.42 0 0.58 1;0.42 0 0.58 1;0.42 0 0.58 1" values="#0e4429;#0e4429;#39d353;#0e4429;#0e4429;#39d353;#0e4429;#0e4429"/></rect>
<rect x="216.00" y="29.00" width="11" height="11" rx="2" ry="2" fill="#161b22"/>
<rect x="216.00" y="43.00" width="11" height="11" rx="2" ry="2" fill="#161b22"/>
<rect x="216.00" y="57.00" width="11" height="11" rx="2" ry="2" fill="#161b22"/>
<rect x="216.00" y="71.00" width="11" height="11" rx="2" ry="2" fill="#161b22"/>
<rect x="216.00" y="85.00" width="11" height="11" rx="2" ry="2" fill="#161b22"/>
<rect x="216.00" y="99.00" width="11" height="11" rx="2" ry="2" fill="#161b22"/>
<rect x="230.00" y="15.00" width="11" height="11" rx="2" ry="2" fill="#161b22"/>
<rect x="230.00" y="29.00" width="11" height="11" rx="2" ry="2" fill="#161b22"/>
<rect x="230.00" y="43.00" width="11" height="11" rx="2" ry="2" fill="#161b22"/>
<rect x="230.00" y="57.00" width="11" height="11" rx="2" ry="2" fill="#161b22"/>
<rect x="230.00" y="71.00" width="11" height="11" rx="2" ry="2" fill="#161b22"/>
<rect x="230.00" y="85.00" width="11" height="11" rx="2" ry="2" fill="#161b22"/>
<rect x="230.00" y="99.00" width="11" height="11" rx="2" ry="2" fill="#161b22"/>
<rect x="244.00" y="15.00" width="11" height="11" rx="2" ry="2" fill="#161b22"/>
<rect x="244.00" y="29.00" width="11" height="11" rx="2" ry="2" fill="#161b22"/>
<rect x="244.00" y="43.00" width="11" height="11" rx="2" ry="2" fill="#161b22"/>
<rect x="244.00" y="57.00" width="11" height="11" rx="2" ry="2" fill="#161b22"/>
<rect x="244.00" y="71.00" width="11" height="11" rx="2" ry="2" fill="#39d353"><animate attributeName="fill" dur="20s" repeatCount="indefinite" calcMode="spline" keyTimes="0;0.243;0.253;0.293;0.757;0.767;0.807;1" keySplines="0.42 0 0.58 1;0.42 0 0.58 1;0.42 0 0.58 1;0.42 0 0.58 1;0.42 0 0.58 1;0.42 0 0.58 1;0.42 0 0.58 1" values="#39d353;#39d353;#39d353;#39d353;#39d353;#39d353;#39d353;#39d353"/></rect>
<rect x="244.00" y="85.00" width="11" height="11" rx="2" ry="2" fill="#161b22"/>
<rect x="244.00" y="99.00" width="11" height="11" rx="2" ry="2" fill="#161b22"/>
<rect x="258.00" y="15.00" width="11" height="11" rx="2" ry="2" fill="#006d32"><animate attributeName="fill" dur="20s" repeatCount="indefinite" calcMode="spline" keyTimes="0;0.257;0.267;0.307;0.743;0.753;0.793;1" keySplines="0.42 0 0.58 1;0.42 0 0.58 1;0.42 0 0.58 1;0.42 0 0.58 1;0.42 0 0.58 1;0.42 0 0.58 1;0.42 0 0.58 1" values="#006d32;#006d32;#39d353;#006d32;#006d32;#39d353;#006d32;#006d32"/></rect>
<rect x="258.00" y="29.00" width="11" height="11" rx="2" ry="2" fill="#0e4429"><animate attributeName="fill" dur="20s" repeatCount="indefinite" calcMode="spline" keyTimes="0;0.257;0.267;0.307;0.743;0.753;0.793;1" keySplines="0.42 0 0.58 1;0.42 0 0.58 1;0.42 0 0.58 1;0.42 0 0.58 1;0.42 0 0.58 1;0.42 0 0.58 1;0.42 0 0.58 1" values="#0e4429;#0e4429;#39d353;#0e4429;#0e4429;#39d353;#0e4429;#0e4429"/></rect>
<rect x="258.00" y="43.00" width="11" height="11" rx="2" ry="2" fill="#39d353"><animate attributeName="fill" dur="20s" repeatCount="indefinite" calcMode="spline" keyTimes="0;0.257;0.267;0.307;0.743;0.753;0.793;1" keySplines="0.42 0 0.58 1;0.42 0 0.58 1;0.42 0 0.58 1;0.42 0 0.58 1;0.42 0 0.58 1;0.42 0 0.58 1;0.42 0 0.58 1" values="#39d353;#39d353;#39d353;#39d353;#39d353;#39d353;#39d353;#39d353"/></rect>
<rect x="258.00" y="57.00" width="11" height="11" rx="2" ry="2" fill="#161b22"/>
<rect x="258.00" y="71.00" width="11" height="11" rx="2" ry="2" fill="#161b22"/>
<rect x="258.00" y="85.00" width="11" height="11" rx="2" ry="2" fill="#161b22"/>
<rect x="258.00" y="99.00" width="11" height="11" rx="2" ry="2" fill="#161b22"/>
<rect x="272.00" y="15.00" width="11" height="11" rx="2" ry="2" fill="#161b22"/>
<rect x="272.00" y="29.00" width="11" height="11" rx="2" ry="2" fill="#161b22"/>
<rect x="272.00" y="43.00" width="11" height="11" rx="2" ry="2" fill="#006d32"><animate attributeName="fill" dur="20s" repeatCount="indefinite" calcMode="spline" keyTimes="0;0.2709;0.2809;0.3209;0.7291;0.7391;0.7791;1" keySplines="0.42 0 0.58 1;0.42 0 0.58 1;0.42 0 0.58 1;0.42 0 0.58 1;0.42 0 0.58 1;0.42 0 0.58 1;0.42 0 0.58 1" values="#006d32;#006d32;#39d353;#006d32;#006d32;#39d353;#006d32;#006d32"/></rect>
<rect x="272.00" y="57.00" width="11" height="11" rx="2" ry="2" fill="#161b22"/>
<rect x="272.00" y="71.00" width="11" height="11" rx="2" ry="2" fill="#161b22"/>
<rect x="272.00" y="85.00" width="11" height="11" rx="2" ry="2" fill="#161b22"/>
<rect x="272.00" y="99.00" width="11" height="11" rx="2" ry="2" fill="#26a641"><animate attributeName="fill" dur="20s" repeatCount="indefinite" calcMode="spline" keyTimes="0;0.2709;0.2809;0.3209;0.7291;0.7391;0.7791;1" keySplines="0.42 0 0.58 1;0.42 0 0.58 1;0.42 0 0.58 1;0.42 0 0.58 1;0.42 0 0.58 1;0.42 0 0.58 1;0.42 0 0.58 1" values="#26a641;#26a641;#39d353;#26a641;#26a641;#39d353;#26a641;#26a641"/></rect>
<rect x="286.00" y="15.00" width="11" height="11" rx="2" ry="2" fill="#161b22"/>
<rect x="286.00" y="29.00" width="11" height="11" rx="2" ry="2" fill="#161b22"/>
<rect x="286.00" y="43.00" width="11" height="11" rx="2" ry="2" fill="#161b22"/>
<rect x="286.00" y="57.00" width="11" height="11" rx="2" ry="2" fill="#161b22"/>
<rect x="286.00" y="71.00" width="11" height="11" rx="2" ry="2" fill="#161b22"/>
<rect x="286.00" y="85.00" width="11" height="11" rx="2" ry="2" fill="#161b22"/>
<rect x="286.00" y="99.00" width="11" height="11" rx="2" ry="2" fill="#161b22"/>
<rect x="300.00" y="15.00" width="11" height="11" rx="2" ry="2" fill="#161b22"/>
<rect x="300.00" y="29.00" width="11" height="11" rx="2" ry="2" fill="#161b22"/>
<rect x="300.00" y="43.00" width="11" height="11" rx="2" ry="2" fill="#161b22"/>
<rect x="300.00" y="57.00" width="11" height="11" rx="2" ry="2" fill="#161b22"/>
<rect x="300.00" y="71.00" width="11" height="11" rx="2" ry="2" fill="#161b22"/>
<rect x="300.00" y="85.00" width="11" height="11" rx="2" ry="2" fill="#0e4429"><animate attributeName="fill" dur="20s" repeatCount="indefinite" calcMode="spline" keyTimes="0;0.2988;0.3088;0.3488;0.7012;0.7112;0.7512;1" keySplines="0.42 0 0.58 1;0.42 0 0.58 1;0.42 0 0.58 1;0.42 0 0.58 1;0.42 0 0.58 1;0.42 0 0.58 1;0.42 0 0.58 1" values="#0e4429;#0e4429;#39d353;#0e4429;#0e4429;#39d353;#0e4429;#0e4429"/></rect>
<rect x="300.00" y="99.00" width="11" height="11" rx="2" ry="2" fill="#161b22"/>
<rect x="314.00" y="15.00" width="11" height="11" rx="2" ry="2" fill="#161b22"/>
<rect x="314.00" y="29.00" width="11" height="11" rx="2" ry="2" fill="#161b22"/>
<rect x="314.00" y="43.00" width="11" height="11" rx="2" ry="2" fill="#161b22"/>
<rect x="314.00" y="57.00" width="11" height="11" rx="2" ry="2" fill="#161b22"/>
<rect x="314.00" y="71.00" width="11" height="11" rx="2" ry="2" fill="#161b22"/>
<rect x="314.00" y="85.00" width="11" height="11" rx="2" ry="2" fill="#161b22"/>
<rect x="314.00" y="99.00" width="11" height="11" rx="2" ry="2" fill="#161b22"/>
<rect x="328.00" y="15.00" width="11" height="11" rx="2" ry="2" fill="#161b22"/>
<rect x="328.00" y="29.00" width="11" height="11" rx="2" ry="2" fill="#161b22"/>
<rect x="328.00" y="43.00" width="11" height="11" rx="2" ry="2" fill="#161b22"/>
<rect x="328.00" y="57.00" width="11" height="11" rx="2" ry="2" fill="#161b22"/>
<rect x="328.00" y="71.00" width="11" height="11" rx="2" ry="2" fill="#161b22"/>
<rect x="328.00" y="85.00" width="11" height="11" rx="2" ry="2" fill="#161b22"/>
<rect x="328.00" y="99.00" width="11" height="11" rx="2" ry="2" fill="#161b22"/>
<rect x="342.00" y="15.00" width="11" height="11" rx="2" ry="2" fill="#161b22"/>
<rect x="342.00" y="29.00" width="11" height="11" rx="2" ry="2" fill="#161b22"/>
<rect x="342.00" y="43.00" width="11" height="11" rx="2" ry="2" fill="#161b22"/>
<rect x="342.00" y="57.00" width="11" height="11" rx="2" ry="2" fill="#161b22"/>
<rect x="342.00" y="71.00" width="11" height="11" rx="2" ry="2" fill="#161b22"/>
<rect x="342.00" y="85.00" width="11" height="11" rx="2" ry="2" fill="#161b22"/>
<rect x="342.00" y="99.00" width="11" height="11" rx="2" ry="2" fill="#161b22"/>
<rect x="356.00" y="15.00" width="11" height="11" rx="2" ry="2" fill="#161b22"/>
<rect x="356.00" y="29.00" width="11" height="11" rx="2" ry="2" fill="#161b22"/>
<rect x="356.00" y="43.00" width="11" height="11" rx="2" ry="2" fill="#161b22"/>
<rect x="356.00" y="57.00" width="11" height="11" rx="2" ry="2" fill="#161b22"/>
<rect x="356.00" y="71.00" width="11" height="11" rx="2" ry="2" fill="#161b22"/>
<rect x="356.00" y="85.00" width="11" height="11" rx="2" ry="2" fill="#161b22"/>
<rect x="356.00" y="99.00" width="11" height="11" rx="2" ry="2" fill="#161b22"/>
<rect x="370.00" y="15.00" width="11" height="11" rx="2" ry="2" fill="#161b22"/>
<rect x="370.00" y="29.00" width="11" height="11" rx="2" ry="2" fill="#161b22"/>
<rect x="370.00" y="43.00" width="11" height="11" rx="2" ry="2" fill="#161b22"/>
<rect x="370.00" y="57.00" width="11" height="11" rx="2" ry="2" fill="#161b22"/>
<rect x="370.00" y="71.00" width="11" height="11" rx="2" ry="2" fill="#161b22"/>
<rect x="370.00" y="85.00" width="11" height="11" rx="2" ry="2" fill="#161b22"/>
<rect x="370.00" y="99.00" width="11" height="11" rx="2" ry="2" fill="#161b22"/>
<rect x="384.00" y="15.00" width="11" height="11" rx="2" ry="2" fill="#161b22"/>
<rect x="384.00" y="29.00" width="11" height="11" rx="2" ry="2" fill="#161b22"/>
<rect x="384.00" y="43.00" width="11" height="11" rx="2" ry="2" fill="#161b22"/>
<rect x="384.00" y="57.00" width="11" height="11" rx="2" ry="2" fill="#161b22"/>
<rect x="384.00" y="71.00" width="11" height="11" rx="2" ry="2" fill="#161b22"/>
<rect x="384.00" y="85.00" width="11" height="11" rx="2" ry="2" fill="#161b22"/>
<rect x="384.00" y="99.00" width="11" height="11" rx="2" ry="2" fill="#161b22"/>
<rect x="398.00" y="15.00" width="11" height="11" rx="2" ry="2" fill="#161b22"/>
<rect x="398.00" y="29.00" width="11" height="11" rx="2" ry="2" fill="#161b22"/>
<rect x="398.00" y="43.00" width="11" height="11" rx="2" ry="2" fill="#161b22"/>
<rect x="398.00" y="57.00" width="11" height="11" rx="2" ry="2" fill="#006d32"><animate attributeName="fill" dur="20s" repeatCount="indefinite" calcMode="spline" keyTimes="0;0.3964;0.4064;0.4464;0.6036;0.6136;0.6536;1" keySplines="0.42 0 0.58 1;0.42 0 0.58 1;0.42 0 0.58 1;0.42 0 0.58 1;0.42 0 0.58 1;0.42 0 0.58 1;0.42 0 0.58 1" values="#006d32;#006d32;#39d353;#006d32;#006d32;#39d353;#006d32;#006d32"/></rect>
<rect x="398.00" y="71.00" width="11" height="11" rx="2" ry="2" fill="#161b22"/>
<rect x="398.00" y="85.00" width="11" height="11" rx="2" ry="2" fill="#161b22"/>
<rect x="398.00" y="99.00" width="11" height="11" rx="2" ry="2" fill="#161b22"/>
<rect x="412.00" y="15.00" width="11" height="11" rx="2" ry="2" fill="#161b22"/>
<rect x="412.00" y="29.00" width="11" height="11" rx="2" ry="2" fill="#161b22"/>
<rect x="412.00" y="43.00" width="11" height="11" rx="2" ry="2" fill="#161b22"/>
<rect x="412.00" y="57.00" width="11" height="11" rx="2" ry="2" fill="#161b22"/>
<rect x="412.00" y="71.00" width="11" height="11" rx="2" ry="2" fill="#161b22"/>
<rect x="412.00" y="85.00" width="11" height="11" rx="2" ry="2" fill="#161b22"/>
<rect x="412.00" y="99.00" width="11" height="11" rx="2" ry="2" fill="#26a641"><animate attributeName="fill" dur="20s" repeatCount="indefinite" calcMode="spline" keyTimes="0;0.4103;0.4203;0.4603;0.5897;0.5997;0.6397;1" keySplines="0.42 0 0.58 1;0.42 0 0.58 1;0.42 0 0.58 1;0.42 0 0.58 1;0.42 0 0.58 1;0.42 0 0.58 1;0.42 0 0.58 1" values="#26a641;#26a641;#39d353;#26a641;#26a641;#39d353;#26a641;#26a641"/></rect>
<rect x="426.00" y="15.00" width="11" height="11" rx="2" ry="2" fill="#0e4429"><animate attributeName="fill" dur="20s" repeatCount="indefinite" calcMode="spline" keyTimes="0;0.4242;0.4342;0.4742;0.5758;0.5858;0.6258;1" keySplines="0.42 0 0.58 1;0.42 0 0.58 1;0.42 0 0.58 1;0.42 0 0.58 1;0.42 0 0.58 1;0.42 0 0.58 1;0.42 0 0.58 1" values="#0e4429;#0e4429;#39d353;#0e4429;#0e4429;#39d353;#0e4429;#0e4429"/></rect>
<rect x="426.00" y="29.00" width="11" height="11" rx="2" ry="2" fill="#0e4429"/>
<rect x="426.00" y="43.00" width="11" height="11" rx="2" ry="2" fill="#0e4429"/>
<rect x="426.00" y="57.00" width="11" height="11" rx="2" ry="2" fill="#0e4429"/>
<rect x="426.00" y="71.00" width="11" height="11" rx="2" ry="2" fill="#0e4429"/>
<rect x="426.00" y="85.00" width="11" height="11" rx="2" ry="2" fill="#0e4429"/>
<rect x="426.00" y="99.00" width="11" height="11" rx="2" ry="2" fill="#0e4429"/>
<rect x="440.00" y="15.00" width="11" height="11" rx="2" ry="2" fill="#0e4429"/>
<rect x="440.00" y="29.00" width="11" height="11" rx="2" ry="2" fill="#0e4429"/>
<rect x="440.00" y="43.00" width="11" height="11" rx="2" ry="2" fill="#0e4429"/>
<rect x="440.00" y="57.00" width="11" height="11" rx="2" ry="2" fill="#0e4429"/>
<rect x="440.00" y="71.00" width="11" height="11" rx="2" ry="2" fill="#0e4429"/>
<rect x="440.00" y="85.00" width="11" height="11" rx="2" ry="2" fill="#0e4429"/>
<rect x="440.00" y="99.00" width="11" height="11" rx="2" ry="2" fill="#0e4429"/>
<rect x="454.00" y="15.00" width="11" height="11" rx="2" ry="2" fill="#0e4429"/>
<rect x="454.00" y="29.00" width="11" height="11" rx="2" ry="2" fill="#0e4429"/>
<rect x="454.00" y="43.00" width="11" height="11" rx="2" ry="2" fill="#0e4429"/>
<rect x="454.00" y="57.00" width="11" height="11" rx="2" ry="2" fill="#0e4429"><animate attributeName="fill" dur="20s" repeatCount="indefinite" calcMode="spline" keyTimes="0;0.4521;0.4621;0.4904;0.5479;0.5579;0.5862;1" keySplines="0.42 0 0.58 1;0.42 0 0.58 1;0.42 0 0.58 1;0.42 0 0.58 1;0.42 0 0.58 1;0.42 0 0.58 1;0.42 0 0.58 1" values="#0e4429;#0e4429;#39d353;#0e4429;#0e4429;#39d353;#0e4429;#0e4429"/></rect>
<rect x="454.00" y="71.00" width="11" height="11" rx="2" ry="2" fill="#0e4429"/>
<rect x="454.00" y="85.00" width="11" height="11" rx="2" ry="2" fill="#0e4429"/>
<rect x="454.00" y="99.00" width="11" height="11" rx="2" ry="2" fill="#0e4429"/>
<rect x="468.00" y="15.00" width="11" height="11" rx="2" ry="2" fill="#0e4429"/>
<rect x="468.00" y="29.00" width="11" height="11" rx="2" ry="2" fill="#0e4429"/>
<rect x="468.00" y="43.00" width="11" height="11" rx="2" ry="2" fill="#0e4429"/>
<rect x="468.00" y="57.00" width="11" height="11" rx="2" ry="2" fill="#0e4429"/>
<rect x="468.00" y="71.00" width="11" height="11" rx="2" ry="2" fill="#0e4429"/>
<rect x="468.00" y="85.00" width="11" height="11" rx="2" ry="2" fill="#0e4429"/>
<rect x="468.00" y="99.00" width="11" height="11" rx="2" ry="2" fill="#0e4429"/>
<rect x="482.00" y="15.00" width="11" height="11" rx="2" ry="2" fill="#0e4429"/>
<rect x="482.00" y="29.00" width="11" height="11" rx="2" ry="2" fill="#0e4429"/>
<rect x="482.00" y="43.00" width="11" height="11" rx="2" ry="2" fill="#161b22"/>
</g>
<g id="blasts">
<circle cx="221.5" cy="20.5" r="0" fill="url(#blastGlow)" opacity="0"><animate attributeName="r" dur="20s" repeatCount="indefinite" calcMode="spline" keyTimes="0;0.2152;0.2392;1" keySplines="0.42 0 0.58 1;0.42 0 0.58 1;0.42 0 0.58 1" values="0;1;8;8"/><animate attributeName="opacity" dur="20s" repeatCount="indefinite" calcMode="spline" keyTimes="0;0.2152;0.2392;1" keySplines="0.42 0 0.58 1;0.42 0 0.58 1;0.42 0 0.58 1" values="0;0.85;0;0"/></circle>
<circle cx="249.5" cy="76.5" r="0" fill="url(#blastGlow)" opacity="0"><animate attributeName="r" dur="20s" repeatCount="indefinite" calcMode="spline" keyTimes="0;0.243;0.267;1" keySplines="0.42 0 0.58 1;0.42 0 0.58 1;0.42 0 0.58 1" values="0;1;8;8"/><animate attributeName="opacity" dur="20s" repeatCount="indefinite" calcMode="spline" keyTimes="0;0.243;0.267;1" keySplines="0.42 0 0.58 1;0.42 0 0.58 1;0.42 0 0.58 1" values="0;0.85;0;0"/></circle>
<circle cx="263.5" cy="20.5" r="0" fill="url(#blastGlow)" opacity="0"><animate attributeName="r" dur="20s" repeatCount="indefinite" calcMode="spline" keyTimes="0;0.257;0.281;1" keySplines="0.42 0 0.58 1;0.42 0 0.58 1;0.42 0 0.58 1" values="0;1;8;8"/><animate attributeName="opacity" dur="20s" repeatCount="indefinite" calcMode="spline" keyTimes="0;0.257;0.281;1" keySplines="0.42 0 0.58 1;0.42 0 0.58 1;0.42 0 0.58 1" values="0;0.85;0;0"/></circle>
<circle cx="263.5" cy="34.5" r="0" fill="url(#blastGlow)" opacity="0"><animate attributeName="r" dur="20s" repeatCount="indefinite" calcMode="spline" keyTimes="0;0.257;0.281;1" keySplines="0.42 0 0.58 1;0.42 0 0.58 1;0.42 0 0.58 1" values="0;1;8;8"/><animate attributeName="opacity" dur="20s" repeatCount="indefinite" calcMode="spline" keyTimes="0;0.257;0.281;1" keySplines="0.42 0 0.58 1;0.42 0 0.58 1;0.42 0 0.58 1" values="0;0.85;0;0"/></circle>
<circle cx="263.5" cy="48.5" r="0" fill="url(#blastGlow)" opacity="0"><animate attributeName="r" dur="20s" repeatCount="indefinite" calcMode="spline" keyTimes="0;0.257;0.281;1" keySplines="0.42 0 0.58 1;0.42 0 0.58 1;0.42 0 0.58 1" values="0;1;8;8"/><animate attributeName="opacity" dur="20s" repeatCount="indefinite" calcMode="spline" keyTimes="0;0.257;0.281;1" keySplines="0.42 0 0.58 1;0.42 0 0.58 1;0.42 0 0.58 1" values="0;0.85;0;0"/></circle>
<circle cx="277.5" cy="48.5" r="0" fill="url(#blastGlow)" opacity="0"><animate attributeName="r" dur="20s" repeatCount="indefinite" calcMode="spline" keyTimes="0;0.2709;0.2949;1" keySplines="0.42 0 0.58 1;0.42 0 0.58 1;0.42 0 0.58 1" values="0;1;8;8"/><animate attributeName="opacity" dur="20s" repeatCount="indefinite" calcMode="spline" keyTimes="0;0.2709;0.2949;1" keySplines="0.42 0 0.58 1;0.42 0 0.58 1;0.42 0 0.58 1" values="0;0.85;0;0"/></circle>
<circle cx="277.5" cy="104.5" r="0" fill="url(#blastGlow)" opacity="0"><animate attributeName="r" dur="20s" repeatCount="indefinite" calcMode="spline" keyTimes="0;0.2709;0.2949;1" keySplines="0.42 0 0.58 1;0.42 0 0.58 1;0.42 0 0.58 1" values="0;1;8;8"/><animate attributeName="opacity" dur="20s" repeatCount="indefinite" calcMode="spline" keyTimes="0;0.2709;0.2949;1" keySplines="0.42 0 0.58 1;0.42 0 0.58 1;0.42 0 0.58 1" values="0;0.85;0;0"/></circle>
<circle cx="305.5" cy="90.5" r="0" fill="url(#blastGlow)" opacity="0"><animate attributeName="r" dur="20s" repeatCount="indefinite" calcMode="spline" keyTimes="0;0.2988;0.3228;1" keySplines="0.42 0 0.58 1;0.42 0 0.58 1;0.42 0 0.58 1" values="0;1;8;8"/><animate attributeName="opacity" dur="20s" repeatCount="indefinite" calcMode="spline" keyTimes="0;0.2988;0.3228;1" keySplines="0.42 0 0.58 1;0.42 0 0.58 1;0.42 0 0.58 1" values="0;0.85;0;0"/></circle>
<circle cx="403.5" cy="62.5" r="0" fill="url(#blastGlow)" opacity="0"><animate attributeName="r" dur="20s" repeatCount="indefinite" calcMode="spline" keyTimes="0;0.3964;0.4204;1" keySplines="0.42 0 0.58 1;0.42 0 0.58 1;0.42 0 0.58 1" values="0;1;8;8"/><animate attributeName="opacity" dur="20s" repeatCount="indefinite" calcMode="spline" keyTimes="0;0.3964;0.4204;1" keySplines="0.42 0 0.58 1;0.42 0 0.58 1;0.42 0 0.58 1" values="0;0.85;0;0"/></circle>
<circle cx="417.5" cy="104.5" r="0" fill="url(#blastGlow)" opacity="0"><animate attributeName="r" dur="20s" repeatCount="indefinite" calcMode="spline" keyTimes="0;0.4103;0.4343;1" keySplines="0.42 0 0.58 1;0.42 0 0.58 1;0.42 0 0.58 1" values="0;1;8;8"/><animate attributeName="opacity" dur="20s" repeatCount="indefinite" calcMode="spline" keyTimes="0;0.4103;0.4343;1" keySplines="0.42 0 0.58 1;0.42 0 0.58 1;0.42 0 0.58 1" values="0;0.85;0;0"/></circle>
<circle cx="431.5" cy="20.5" r="0" fill="url(#blastGlow)" opacity="0"><animate attributeName="r" dur="20s" repeatCount="indefinite" calcMode="spline" keyTimes="0;0.4242;0.4482;1" keySplines="0.42 0 0.58 1;0.42 0 0.58 1;0.42 0 0.58 1" values="0;1;8;8"/><animate attributeName="opacity" dur="20s" repeatCount="indefinite" calcMode="spline" keyTimes="0;0.4242;0.4482;1" keySplines="0.42 0 0.58 1;0.42 0 0.58 1;0.42 0 0.58 1" values="0;0.85;0;0"/></circle>
<circle cx="459.5" cy="62.5" r="0" fill="url(#blastGlow)" opacity="0"><animate attributeName="r" dur="20s" repeatCount="indefinite" calcMode="spline" keyTimes="0;0.4521;0.4761;1" keySplines="0.42 0 0.58 1;0.42 0 0.58 1;0.42 0 0.58 1" values="0;1;8;8"/><animate attributeName="opacity" dur="20s" repeatCount="indefinite" calcMode="spline" keyTimes="0;0.4521;0.4761;1" keySplines="0.42 0 0.58 1;0.42 0 0.58 1;0.42 0 0.58 1" values="0;0.85;0;0"/></circle>
<circle cx="459.5" cy="62.5" r="0" fill="url(#blastGlow)" opacity="0"><animate attributeName="r" dur="20s" repeatCount="indefinite" calcMode="spline" keyTimes="0;0.5479;0.5719;1" keySplines="0.42 0 0.58 1;0.42 0 0.58 1;0.42 0 0.58 1" values="0;1;8;8"/><animate attributeName="opacity" dur="20s" repeatCount="indefinite" calcMode="spline" keyTimes="0;0.5479;0.5719;1" keySplines="0.42 0 0.58 1;0.42 0 0.58 1;0.42 0 0.58 1" values="0;0.85;0;0"/></circle>
<circle cx="431.5" cy="20.5" r="0" fill="url(#blastGlow)" opacity="0"><animate attributeName="r" dur="20s" repeatCount="indefinite" calcMode="spline" keyTimes="0;0.5758;0.5998;1" keySplines="0.42 0 0.58 1;0.42 0 0.58 1;0.42 0 0.58 1" values="0;1;8;8"/><animate attributeName="opacity" dur="20s" repeatCount="indefinite" calcMode="spline" keyTimes="0;0.5758;0.5998;1" keySplines="0.42 0 0.58 1;0.42 0 0.58 1;0.42 0 0.58 1" values="0;0.85;0;0"/></circle>
<circle cx="417.5" cy="104.5" r="0" fill="url(#blastGlow)" opacity="0"><animate attributeName="r" dur="20s" repeatCount="indefinite" calcMode="spline" keyTimes="0;0.5897;0.6137;1" keySplines="0.42 0 0.58 1;0.42 0 0.58 1;0.42 0 0.58 1" values="0;1;8;8"/><animate attributeName="opacity" dur="20s" repeatCount="indefinite" calcMode="spline" keyTimes="0;0.5897;0.6137;1" keySplines="0.42 0 0.58 1;0.42 0 0.58 1;0.42 0 0.58 1" values="0;0.85;0;0"/></circle>
<circle cx="403.5" cy="62.5" r="0" fill="url(#blastGlow)" opacity="0"><animate attributeName="r" dur="20s" repeatCount="indefinite" calcMode="spline" keyTimes="0;0.6036;0.6276;1" keySplines="0.42 0 0.58 1;0.42 0 0.58 1;0.42 0 0.58 1" values="0;1;8;8"/><animate attributeName="opacity" dur="20s" repeatCount="indefinite" calcMode="spline" keyTimes="0;0.6036;0.6276;1" keySplines="0.42 0 0.58 1;0.42 0 0.58 1;0.42 0 0.58 1" values="0;0.85;0;0"/></circle>
<circle cx="305.5" cy="90.5" r="0" fill="url(#blastGlow)" opacity="0"><animate attributeName="r" dur="20s" repeatCount="indefinite" calcMode="spline" keyTimes="0;0.7012;0.7252;1" keySplines="0.42 0 0.58 1;0.42 0 0.58 1;0.42 0 0.58 1" values="0;1;8;8"/><animate attributeName="opacity" dur="20s" repeatCount="indefinite" calcMode="spline" keyTimes="0;0.7012;0.7252;1" keySplines="0.42 0 0.58 1;0.42 0 0.58 1;0.42 0 0.58 1" values="0;0.85;0;0"/></circle>
<circle cx="277.5" cy="104.5" r="0" fill="url(#blastGlow)" opacity="0"><animate attributeName="r" dur="20s" repeatCount="indefinite" calcMode="spline" keyTimes="0;0.7291;0.7531;1" keySplines="0.42 0 0.58 1;0.42 0 0.58 1;0.42 0 0.58 1" values="0;1;8;8"/><animate attributeName="opacity" dur="20s" repeatCount="indefinite" calcMode="spline" keyTimes="0;0.7291;0.7531;1" keySplines="0.42 0 0.58 1;0.42 0 0.58 1;0.42 0 0.58 1" values="0;0.85;0;0"/></circle>
<circle cx="277.5" cy="48.5" r="0" fill="url(#blastGlow)" opacity="0"><animate attributeName="r" dur="20s" repeatCount="indefinite" calcMode="spline" keyTimes="0;0.7291;0.7531;1" keySplines="0.42 0 0.58 1;0.42 0 0.58 1;0.42 0 0.58 1" values="0;1;8;8"/><animate attributeName="opacity" dur="20s" repeatCount="indefinite" calcMode="spline" keyTimes="0;0.7291;0.7531;1" keySplines="0.42 0 0.58 1;0.42 0 0.58 1;0.42 0 0.58 1" values="0;0.85;0;0"/></circle>
<circle cx="263.5" cy="48.5" r="0" fill="url(#blastGlow)" opacity="0"><animate attributeName="r" dur="20s" repeatCount="indefinite" calcMode="spline" keyTimes="0;0.743;0.767;1" keySplines="0.42 0 0.58 1;0.42 0 0.58 1;0.42 0 0.58 1" values="0;1;8;8"/><animate attributeName="opacity" dur="20s" repeatCount="indefinite" calcMode="spline" keyTimes="0;0.743;0.767;1" keySplines="0.42 0 0.58 1;0.42 0 0.58 1;0.42 0 0.58 1" values="0;0.85;0;0"/></circle>
<circle cx="263.5" cy="34.5" r="0" fill="url(#blastGlow)" opacity="0"><animate attributeName="r" dur="20s" repeatCount="indefinite" calcMode="spline" keyTimes="0;0.743;0.767;1" keySplines="0.42 0 0.58 1;0.42 0 0.58 1;0.42 0 0.58 1" values="0;1;8;8"/><animate attributeName="opacity" dur="20s" repeatCount="indefinite" calcMode="spline" keyTimes="0;0.743;0.767;1" keySplines="0.42 0 0.58 1;0.42 0 0.58 1;0.42 0 0.58 1" values="0;0.85;0;0"/></circle>
<circle cx="263.5" cy="20.5" r="0" fill="url(#blastGlow)" opacity="0"><animate attributeName="r" dur="20s" repeatCount="indefinite" calcMode="spline" keyTimes="0;0.743;0.767;1" keySplines="0.42 0 0.58 1;0.42 0 0.58 1;0.42 0 0.58 1" values="0;1;8;8"/><animate attributeName="opacity" dur="20s" repeatCount="indefinite" calcMode="spline" keyTimes="0;0.743;0.767;1" keySplines="0.42 0 0.58 1;0.42 0 0.58 1;0.42 0 0.58 1" values="0;0.85;0;0"/></circle>
<circle cx="249.5" cy="76.5" r="0" fill="url(#blastGlow)" opacity="0"><animate attributeName="r" dur="20s" repeatCount="indefinite" calcMode="spline" keyTimes="0;0.757;0.781;1" keySplines="0.42 0 0.58 1;0.42 0 0.58 1;0.42 0 0.58 1" values="0;1;8;8"/><animate attributeName="opacity" dur="20s" repeatCount="indefinite" calcMode="spline" keyTimes="0;0.757;0.781;1" keySplines="0.42 0 0.58 1;0.42 0 0.58 1;0.42 0 0.58 1" values="0;0.85;0;0"/></circle>
<circle cx="221.5" cy="20.5" r="0" fill="url(#blastGlow)" opacity="0"><animate attributeName="r" dur="20s" repeatCount="indefinite" calcMode="spline" keyTimes="0;0.7848;0.8088;1" keySplines="0.42 0 0.58 1;0.42 0 0.58 1;0.42 0 0.58 1" values="0;1;8;8"/><animate attributeName="opacity" dur="20s" repeatCount="indefinite" calcMode="spline" keyTimes="0;0.7848;0.8088;1" keySplines="0.42 0 0.58 1;0.42 0 0.58 1;0.42 0 0.58 1" values="0;0.85;0;0"/></circle>
</g>
<g id="bullets">
<circle cx="221.5" cy="128" r="2" fill="#7ee787" filter="url(#softGlow)"><animate attributeName="cy" dur="20s" repeatCount="indefinite" calcMode="spline" keyTimes="0;0.1972;0.2152;1" keySplines="0.42 0 0.58 1;0.42 0 0.58 1;0.42 0 0.58 1" values="128;128;20.5;20.5"/><animate attributeName="opacity" dur="20s" repeatCount="indefinite" keyTimes="0;0.1972;0.2152;0.2392;1" values="0;1;1;0;0"/></circle>
<circle cx="249.5" cy="128" r="2" fill="#7ee787" filter="url(#softGlow)"><animate attributeName="cy" dur="20s" repeatCount="indefinite" calcMode="spline" keyTimes="0;0.225;0.243;1" keySplines="0.42 0 0.58 1;0.42 0 0.58 1;0.42 0 0.58 1" values="128;128;76.5;76.5"/><animate attributeName="opacity" dur="20s" repeatCount="indefinite" keyTimes="0;0.225;0.243;0.267;1" values="0;1;1;0;0"/></circle>
<circle cx="263.5" cy="128" r="2" fill="#7ee787" filter="url(#softGlow)"><animate attributeName="cy" dur="20s" repeatCount="indefinite" calcMode="spline" keyTimes="0;0.239;0.257;1" keySplines="0.42 0 0.58 1;0.42 0 0.58 1;0.42 0 0.58 1" values="128;128;20.5;20.5"/><animate attributeName="opacity" dur="20s" repeatCount="indefinite" keyTimes="0;0.239;0.257;0.281;1" values="0;1;1;0;0"/></circle>
<circle cx="263.5" cy="128" r="2" fill="#7ee787" filter="url(#softGlow)"><animate attributeName="cy" dur="20s" repeatCount="indefinite" calcMode="spline" keyTimes="0;0.239;0.257;1" keySplines="0.42 0 0.58 1;0.42 0 0.58 1;0.42 0 0.58 1" values="128;128;34.5;34.5"/><animate attributeName="opacity" dur="20s" repeatCount="indefinite" keyTimes="0;0.239;0.257;0.281;1" values="0;1;1;0;0"/></circle>
<circle cx="263.5" cy="128" r="2" fill="#7ee787" filter="url(#softGlow)"><animate attributeName="cy" dur="20s" repeatCount="indefinite" calcMode="spline" keyTimes="0;0.239;0.257;1" keySplines="0.42 0 0.58 1;0.42 0 0.58 1;0.42 0 0.58 1" values="128;128;48.5;48.5"/><animate attributeName="opacity" dur="20s" repeatCount="indefinite" keyTimes="0;0.239;0.257;0.281;1" values="0;1;1;0;0"/></circle>
<circle cx="277.5" cy="128" r="2" fill="#7ee787" filter="url(#softGlow)"><animate attributeName="cy" dur="20s" repeatCount="indefinite" calcMode="spline" keyTimes="0;0.2529;0.2709;1" keySplines="0.42 0 0.58 1;0.42 0 0.58 1;0.42 0 0.58 1" values="128;128;48.5;48.5"/><animate attributeName="opacity" dur="20s" repeatCount="indefinite" keyTimes="0;0.2529;0.2709;0.2949;1" values="0;1;1;0;0"/></circle>
<circle cx="277.5" cy="128" r="2" fill="#7ee787" filter="url(#softGlow)"><animate attributeName="cy" dur="20s" repeatCount="indefinite" calcMode="spline" keyTimes="0;0.2529;0.2709;1" keySplines="0.42 0 0.58 1;0.42 0 0.58 1;0.42 0 0.58 1" values="128;128;104.5;104.5"/><animate attributeName="opacity" dur="20s" repeatCount="indefinite" keyTimes="0;0.2529;0.2709;0.2949;1" values="0;1;1;0;0"/></circle>
<circle cx="305.5" cy="128" r="2" fill="#7ee787" filter="url(#softGlow)"><animate attributeName="cy" dur="20s" repeatCount="indefinite" calcMode="spline" keyTimes="0;0.2808;0.2988;1" keySplines="0.42 0 0.58 1;0.42 0 0.58 1;0.42 0 0.58 1" values="128;128;90.5;90.5"/><animate attributeName="opacity" dur="20s" repeatCount="indefinite" keyTimes="0;0.2808;0.2988;0.3228;1" values="0;1;1;0;0"/></circle>
<circle cx="403.5" cy="128" r="2" fill="#7ee787" filter="url(#softGlow)"><animate attributeName="cy" dur="20s" repeatCount="indefinite" calcMode="spline" keyTimes="0;0.3784;0.3964;1" keySplines="0.42 0 0.58 1;0.42 0 0.58 1;0.42 0 0.58 1" values="128;128;62.5;62.5"/><animate attributeName="opacity" dur="20s" repeatCount="indefinite" keyTimes="0;0.3784;0.3964;0.4204;1" values="0;1;1;0;0"/></circle>
<circle cx="417.5" cy="128" r="2" fill="#7ee787" filter="url(#softGlow)"><animate attributeName="cy" dur="20s" repeatCount="indefinite" calcMode="spline" keyTimes="0;0.3923;0.4103;1" keySplines="0.42 0 0.58 1;0.42 0 0.58 1;0.42 0 0.58 1" values="128;128;104.5;104.5"/><animate attributeName="opacity" dur="20s" repeatCount="indefinite" keyTimes="0;0.3923;0.4103;0.4343;1" values="0;1;1;0;0"/></circle>
<circle cx="431.5" cy="128" r="2" fill="#7ee787" filter="url(#softGlow)"><animate attributeName="cy" dur="20s" repeatCount="indefinite" calcMode="spline" keyTimes="0;0.4062;0.4242;1" keySplines="0.42 0 0.58 1;0.42 0 0.58 1;0.42 0 0.58 1" values="128;128;20.5;20.5"/><animate attributeName="opacity" dur="20s" repeatCount="indefinite" keyTimes="0;0.4062;0.4242;0.4482;1" values="0;1;1;0;0"/></circle>
<circle cx="459.5" cy="128" r="2" fill="#7ee787" filter="url(#softGlow)"><animate attributeName="cy" dur="20s" repeatCount="indefinite" calcMode="spline" keyTimes="0;0.4341;0.4521;1" keySplines="0.42 0 0.58 1;0.42 0 0.58 1;0.42 0 0.58 1" values="128;128;62.5;62.5"/><animate attributeName="opacity" dur="20s" repeatCount="indefinite" keyTimes="0;0.4341;0.4521;0.4761;1" values="0;1;1;0;0"/></circle>
<circle cx="459.5" cy="128" r="2" fill="#7ee787" filter="url(#softGlow)"><animate attributeName="cy" dur="20s" repeatCount="indefinite" calcMode="spline" keyTimes="0;0.5299;0.5479;1" keySplines="0.42 0 0.58 1;0.42 0 0.58 1;0.42 0 0.58 1" values="128;128;62.5;62.5"/><animate attributeName="opacity" dur="20s" repeatCount="indefinite" keyTimes="0;0.5299;0.5479;0.5719;1" values="0;1;1;0;0"/></circle>
<circle cx="431.5" cy="128" r="2" fill="#7ee787" filter="url(#softGlow)"><animate attributeName="cy" dur="20s" repeatCount="indefinite" calcMode="spline" keyTimes="0;0.5578;0.5758;1" keySplines="0.42 0 0.58 1;0.42 0 0.58 1;0.42 0 0.58 1" values="128;128;20.5;20.5"/><animate attributeName="opacity" dur="20s" repeatCount="indefinite" keyTimes="0;0.5578;0.5758;0.5998;1" values="0;1;1;0;0"/></circle>
<circle cx="417.5" cy="128" r="2" fill="#7ee787" filter="url(#softGlow)"><animate attributeName="cy" dur="20s" repeatCount="indefinite" calcMode="spline" keyTimes="0;0.5717;0.5897;1" keySplines="0.42 0 0.58 1;0.42 0 0.58 1;0.42 0 0.58 1" values="128;128;104.5;104.5"/><animate attributeName="opacity" dur="20s" repeatCount="indefinite" keyTimes="0;0.5717;0.5897;0.6137;1" values="0;1;1;0;0"/></circle>
<circle cx="403.5" cy="128" r="2" fill="#7ee787" filter="url(#softGlow)"><animate attributeName="cy" dur="20s" repeatCount="indefinite" calcMode="spline" keyTimes="0;0.5856;0.6036;1" keySplines="0.42 0 0.58 1;0.42 0 0.58 1;0.42 0 0.58 1" values="128;128;62.5;62.5"/><animate attributeName="opacity" dur="20s" repeatCount="indefinite" keyTimes="0;0.5856;0.6036;0.6276;1" values="0;1;1;0;0"/></circle>
<circle cx="305.5" cy="128" r="2" fill="#7ee787" filter="url(#softGlow)"><animate attributeName="cy" dur="20s" repeatCount="indefinite" calcMode="spline" keyTimes="0;0.6832;0.7012;1" keySplines="0.42 0 0.58 1;0.42 0 0.58 1;0.42 0 0.58 1" values="128;128;90.5;90.5"/><animate attributeName="opacity" dur="20s" repeatCount="indefinite" keyTimes="0;0.6832;0.7012;0.7252;1" values="0;1;1;0;0"/></circle>
<circle cx="277.5" cy="128" r="2" fill="#7ee787" filter="url(#softGlow)"><animate attributeName="cy" dur="20s" repeatCount="indefinite" calcMode="spline" keyTimes="0;0.7111;0.7291;1" keySplines="0.42 0 0.58 1;0.42 0 0.58 1;0.42 0 0.58 1" values="128;128;104.5;104.5"/><animate attributeName="opacity" dur="20s" repeatCount="indefinite" keyTimes="0;0.7111;0.7291;0.7531;1" values="0;1;1;0;0"/></circle>
<circle cx="277.5" cy="128" r="2" fill="#7ee787" filter="url(#softGlow)"><animate attributeName="cy" dur="20s" repeatCount="indefinite" calcMode="spline" keyTimes="0;0.7111;0.7291;1" keySplines="0.42 0 0.58 1;0.42 0 0.58 1;0.42 0 0.58 1" values="128;128;48.5;48.5"/><animate attributeName="opacity" dur="20s" repeatCount="indefinite" keyTimes="0;0.7111;0.7291;0.7531;1" values="0;1;1;0;0"/></circle>
<circle cx="263.5" cy="128" r="2" fill="#7ee787" filter="url(#softGlow)"><animate attributeName="cy" dur="20s" repeatCount="indefinite" calcMode="spline" keyTimes="0;0.725;0.743;1" keySplines="0.42 0 0.58 1;0.42 0 0.58 1;0.42 0 0.58 1" values="128;128;48.5;48.5"/><animate attributeName="opacity" dur="20s" repeatCount="indefinite" keyTimes="0;0.725;0.743;0.767;1" values="0;1;1;0;0"/></circle>
<circle cx="263.5" cy="128" r="2" fill="#7ee787" filter="url(#softGlow)"><animate attributeName="cy" dur="20s" repeatCount="indefinite" calcMode="spline" keyTimes="0;0.725;0.743;1" keySplines="0.42 0 0.58 1;0.42 0 0.58 1;0.42 0 0.58 1" values="128;128;34.5;34.5"/><animate attributeName="opacity" dur="20s" repeatCount="indefinite" keyTimes="0;0.725;0.743;0.767;1" values="0;1;1;0;0"/></circle>
<circle cx="263.5" cy="128" r="2" fill="#7ee787" filter="url(#softGlow)"><animate attributeName="cy" dur="20s" repeatCount="indefinite" calcMode="spline" keyTimes="0;0.725;0.743;1" keySplines="0.42 0 0.58 1;0.42 0 0.58 1;0.42 0 0.58 1" values="128;128;20.5;20.5"/><animate attributeName="opacity" dur="20s" repeatCount="indefinite" keyTimes="0;0.725;0.743;0.767;1" values="0;1;1;0;0"/></circle>
<circle cx="249.5" cy="128" r="2" fill="#7ee787" filter="url(#softGlow)"><animate attributeName="cy" dur="20s" repeatCount="indefinite" calcMode="spline" keyTimes="0;0.739;0.757;1" keySplines="0.42 0 0.58 1;0.42 0 0.58 1;0.42 0 0.58 1" values="128;128;76.5;76.5"/><animate attributeName="opacity" dur="20s" repeatCount="indefinite" keyTimes="0;0.739;0.757;0.781;1" values="0;1;1;0;0"/></circle>
<circle cx="221.5" cy="128" r="2" fill="#7ee787" filter="url(#softGlow)"><animate attributeName="cy" dur="20s" repeatCount="indefinite" calcMode="spline" keyTimes="0;0.7668;0.7848;1" keySplines="0.42 0 0.58 1;0.42 0 0.58 1;0.42 0 0.58 1" values="128;128;20.5;20.5"/><animate attributeName="opacity" dur="20s" repeatCount="indefinite" keyTimes="0;0.7668;0.7848;0.8088;1" values="0;1;1;0;0"/></circle>
</g>
<g id="rocket">
  <g transform="translate(0,0)">
    <ellipse cx="0" cy="10" rx="5.5" ry="3.2" fill="#38bdf8" opacity="0.35" filter="url(#softGlow)">
      <animate attributeName="rx" values="4.5;6.5;4.5" dur="0.5s" repeatCount="indefinite"/>
      <animate attributeName="opacity" values="0.25;0.55;0.25" dur="0.5s" repeatCount="indefinite"/>
    </ellipse>
    <path d="M0,-15 C4.5,-9 4.5,3 2.6,8 L-2.6,8 C-4.5,3 -4.5,-9 0,-15 Z" fill="url(#rocketBody)" stroke="#0b3a55" stroke-width="0.6"/>
    <path d="M-2.6,8 L-6.5,14 L-2.2,10.5 Z" fill="#7c3aed"/>
    <path d="M2.6,8 L6.5,14 L2.2,10.5 Z" fill="#7c3aed"/>
    <circle cx="0" cy="-4" r="2.1" fill="#e0f2fe" opacity="0.9"/>
    <path d="M-1.8,9 C-1.8,12 0,16 0,16 C0,16 1.8,12 1.8,9 Z" fill="url(#flame)">
      <animate attributeName="opacity" values="0.7;1;0.75;0.95;0.7" dur="0.22s" repeatCount="indefinite"/>
    </path>
  </g>
  <animateTransform attributeName="transform" attributeType="XML" type="translate"
    dur="20s" repeatCount="indefinite" calcMode="spline"
    keyTimes="0;0.5;1" keySplines="0.42 0 0.58 1;0.42 0 0.58 1"
    values="35.00,140.00;478.00,140.00;35.00,140.00"/>
</g>
</svg>